inDegrees=no
num_controls=7
num_derivatives=13
num_iterations=69
num_multipliers=7
num_parameters=0
num_slacks=7
num_states=26
objective=0.473486
objective_accelerations=0.038251
objective_balance=0.001205
objective_effort=0.016104
objective_height=0.407206
objective_ligament=0.010719
solver_duration=977.301558
status=Solve_Succeeded
success=true
DataType=double
version=3
OpenSimVersion=4.5
endheader
time	/jointset/ground_pelvis/pelvis_tilt/value	/jointset/ground_pelvis/pelvis_tx/value	/jointset/ground_pelvis/pelvis_ty/value	/jointset/hip_l/hip_flexion_l/value	/jointset/hip_l/hip_adduction_l/value	/jointset/hip_l/hip_rotation_l/value	/jointset/back/lumbar_extension/value	/jointset/patellofemoral_l/patellar_flexion_l/value	/jointset/knee_l/knee_flexion_l/value	/jointset/knee_l/knee_adduction_l/value	/jointset/knee_l/knee_rotation_l/value	/jointset/ankle_l/ankle_angle_l/value	/jointset/subtalar_l/subtalar_angle_l/value	/jointset/ground_pelvis/pelvis_tilt/speed	/jointset/ground_pelvis/pelvis_tx/speed	/jointset/ground_pelvis/pelvis_ty/speed	/jointset/hip_l/hip_flexion_l/speed	/jointset/hip_l/hip_adduction_l/speed	/jointset/hip_l/hip_rotation_l/speed	/jointset/back/lumbar_extension/speed	/jointset/patellofemoral_l/patellar_flexion_l/speed	/jointset/knee_l/knee_flexion_l/speed	/jointset/knee_l/knee_adduction_l/speed	/jointset/knee_l/knee_rotation_l/speed	/jointset/ankle_l/ankle_angle_l/speed	/jointset/subtalar_l/subtalar_angle_l/speed	/forceset/tau_hip_flexion_l	/forceset/tau_hip_adduction_l	/forceset/tau_hip_rotation_l	/forceset/tau_knee_flexion_l	/forceset/tau_ankle_angle_l	/forceset/tau_subtalar_angle_l	/forceset/tau_lumbar_extension	lambda_cid13_p0	lambda_cid13_p1	lambda_cid13_p2	lambda_cid13_p3	lambda_cid13_p4	lambda_cid13_p5	lambda_cid14_p0	/jointset/ground_pelvis/pelvis_tilt/accel	/jointset/ground_pelvis/pelvis_tx/accel	/jointset/ground_pelvis/pelvis_ty/accel	/jointset/hip_l/hip_flexion_l/accel	/jointset/hip_l/hip_adduction_l/accel	/jointset/hip_l/hip_rotation_l/accel	/jointset/back/lumbar_extension/accel	/jointset/patellofemoral_l/patellar_flexion_l/accel	/jointset/knee_l/knee_flexion_l/accel	/jointset/knee_l/knee_adduction_l/accel	/jointset/knee_l/knee_rotation_l/accel	/jointset/ankle_l/ankle_angle_l/accel	/jointset/subtalar_l/subtalar_angle_l/accel	gamma_cid13_p0	gamma_cid13_p1	gamma_cid13_p2	gamma_cid13_p3	gamma_cid13_p4	gamma_cid13_p5	gamma_cid14_p0
1.5	-0.501760975598772	0.00518877358200151	0.8259686735132737	0.9875603407246497	-0.3516003529526746	-0.1653035766572157	-0.3291856876320287	0.416417458191533	0.4164174581916043	-0.09182958969877464	-0.1741540123313321	0.01275643835079236	0.07481298232331081	0.9410608942265983	0.4026814719390707	0.2971603049004466	-2.206870582206068	0.007579633302342839	-0.3956962938772118	0.6076977917921571	-1.086123306822149	-1.086123306822233	-0.1744975796246788	-0.00449706095323949	0.09695513748275963	0.0407650234231763	-0.1857878300016916	0.03714040012385547	0.01335173495857895	-0.0344306361500693	0.006013439602610732	-0.0181979203257845	0.1555856702733552	-23.94816744074473	7.018304659851068	4.400609005985634	-5.104255522026259	-441.189728572986	-45.10450646827792	-24.17778970064984	0.4478709478265273	0.6404263418670018	-0.3094475834204637	-1.528087379253058	0.1307643798128705	-0.3414696877102346	1.530307532801242	-0.6456868734621926	-0.6456868734621627	-0.2650934157424987	0.0892097013565821	0.376142359842811	0.2515531965693875	3.11594790020494e-08	9.02488593227633e-07	-2.521981049885857e-07	1.328788364668684e-07	2.826334900923004e-07	3.590798859488602e-08	1.750420854590234e-07
1.51	-0.4923290560616274	0.009246966590550198	0.8289241741334477	0.9654178524717979	-0.3515178413840047	-0.1692792718167919	-0.3230342598612104	0.4055250465971706	0.4055250465971052	-0.09358690365390672	-0.1741962361080665	0.01374435904149274	0.07523329537609104	0.9451354069193832	0.4088823535205885	0.2938681717254879	-2.221210153135967	0.00903147336958402	-0.3993898928216038	0.6224664525677246	-1.092190634169924	-1.092190634170001	-0.1767386602331243	-0.003880026184694764	0.100626696962084	0.04340928897542112	-0.1792586779286446	0.03575187629949405	0.01340765539782778	-0.03460081113604101	0.005107880547480407	-0.01934828425636392	0.1506848641428424	-24.16825849657901	7.460832181614932	4.43926950311873	-4.616418138990209	-438.3583179610694	-44.9763602416691	-24.38223777188361	0.3591102525067912	0.5987326595295057	-0.3497829869799692	-1.324340011479623	0.1685462622959176	-0.3752562725651277	1.431948879494257	-0.562035077895899	-0.5620350778940979	-0.1694502148017886	0.05802192582701671	0.3623458767947575	0.2874743096859758	2.269172999377045e-08	9.989124479071564e-07	-2.021232617420672e-07	1.442764409037236e-07	2.9511403130346e-07	4.626088960208523e-08	1.786287145136635e-07
1.52	-0.4828620176331136	0.01336493113356348	0.8318446160613848	0.9431444788972925	-0.3514175809262319	-0.1732902932207178	-0.3167387847767463	0.3945770058467655	0.3945770058466989	-0.09535979538144208	-0.1742302752248806	0.01476893195394443	0.07568337329942121	0.9480846725123516	0.4146357788319887	0.2901485664532031	-2.233047646530554	0.01112941112142163	-0.4027615427564558	0.6365072545256669	-1.097249138016146	-1.097249138016215	-0.177613134097815	-0.002860128967195366	0.1042855818340712	0.04671799753301972	-0.1727295258555334	0.03436335247535218	0.01346357583734323	-0.03477098612202145	0.004202321492389001	-0.02049864818670978	0.1457840580122601	-24.38974426543745	7.904086294777504	4.477263716919757	-4.138786336897642	-435.5533933960708	-44.87851757607551	-24.57697636104037	0.2228215278635562	0.5509350878439047	-0.3949420028856158	-1.027671872190894	0.259983916732318	-0.2770798858023871	1.384735769276675	-0.4439221731516318	-0.4439221731516645	0.008227933008566311	0.1697821911474367	0.3736074383759099	0.3844417976403404	1.874533938883987e-08	1.05316508847036e-06	-1.941310253822546e-07	1.497574472542983e-07	3.061289727532953e-07	6.432166280907808e-08	1.822490321345002e-07
1.53	-0.4733705067493727	0.01753824647873563	0.8347257568686469	0.9207642200682373	-0.351294856977862	-0.1773310194023394	-0.3103068505404782	0.383583253315585	0.3835832533154118	-0.09713869521073036	-0.1742508986217907	0.01582965805573565	0.07616793605284429	0.9500838736375888	0.4199575541285935	0.2860100691637708	-2.242680418202208	0.0133500632972794	-0.4051058316140252	0.6497344455204218	-1.10134635397233	-1.10134635397238	-0.1783305690552085	-0.001083540205595054	0.107822201605187	0.05011470981503914	-0.1664478247730876	0.03274524566653614	0.01351421026429828	-0.03477955441396848	0.003097146689053882	-0.0216304599036574	0.141064423406091	-24.6825112077817	8.347466096456808	4.520146227050044	-3.624236712506156	-432.8996269644942	-44.76574742713653	-24.76182247780701	0.1684339501856142	0.512368045285951	-0.4336683370688272	-0.8825103385925513	0.1931493075053658	-0.1712946111842944	1.26993868339562	-0.3694067388150224	-0.3694067388114365	-0.1361118803317377	0.2086571064258472	0.3381014617441309	0.3051711681496748	1.96028920874669e-08	1.062610814034976e-06	-2.308515588395665e-07	1.489520681381999e-07	3.155867144567234e-07	9.057205022835158e-08	1.85905143856921e-07
1.54	-0.4638630109453637	0.02176269343581952	0.8375634397539986	0.8982973474176665	-0.3511519178198304	-0.1813868267175588	-0.3037469988105196	0.3725531715381888	0.3725531715383377	-0.09892964592330805	-0.1742483441538172	0.0169246327982842	0.07668404297402177	0.9512816565761858	0.4248621012143339	0.2814569820711933	-2.250370410831273	0.01517245305276782	-0.4057777694896115	0.6620907532679847	-1.104514987207055	-1.104514987207087	-0.1800233108213343	0.001775444066411162	0.1111353099868504	0.05302683108373233	-0.1601661236904288	0.03112713885807255	0.01356484469323173	-0.03478812270600799	0.001991971885783018	-0.02276227162024713	0.1363447887999409	-24.97605410863882	8.792027526228756	4.561647071286039	-3.119480438021863	-430.2597586088175	-44.68129616315927	-24.93668953265397	0.06253789053592772	0.4674894456716175	-0.4778599635145838	-0.6391160636735177	0.1803314326585485	0.05739031059410646	1.210559119838812	-0.2582056288602361	-0.2582056288602779	-0.1868334287377858	0.3862612932285892	0.3289051604861314	0.2875235949753542	2.265805204500998e-08	1.053254182397005e-06	-2.697230896085223e-07	1.446790449980587e-07	3.414793992989438e-07	1.102067042129715e-07	1.879416138289569e-07
1.55	-0.4543478790536479	0.02603402346074364	0.8403535946347875	0.8757634093315835	-0.3509925274652255	-0.1854444523243426	-0.2970677304618576	0.3614957425309615	0.36149574253085	-0.1007410495206455	-0.1742147532246366	0.01805137431756934	0.0772270362184645	0.9515684647809187	0.4293257620456219	0.2765099673024304	-2.256052534483646	0.01666995600031214	-0.4058347443888047	0.6736481619890775	-1.106817285624417	-1.106817285624426	-0.1822682213722391	0.004798550348962809	0.1141633288523754	0.05552287389321032	-0.1539009628401525	0.02947931582245818	0.01353444744219717	-0.03498182918429778	0.001070848942245127	-0.02400771567012245	0.1316327492808189	-25.2355140025976	9.285207121447705	4.589416370748135	-2.609173839054033	-427.9234822753237	-44.56155429167025	-25.10161474819252	-0.01467741775089004	0.4241095084989543	-0.5126440083895154	-0.478043903606173	0.1289666112395478	-0.05021667135489413	1.111118576661164	-0.1932502934996848	-0.1932502934955801	-0.2447811750944634	0.2386028911607671	0.2823257340804668	0.2231844590264512	2.824523775739099e-08	1.022233965286491e-06	-3.110729433669806e-07	1.364106928736944e-07	3.863079968880326e-07	1.222188827185344e-07	1.881119748277231e-07
1.56	-0.4448351650205792	0.03034765111531098	0.8430923750129261	0.8531835933314555	-0.350819260704047	-0.1895052427363168	-0.2902763306603169	0.3504198888701915	0.3504198888703846	-0.1025751944843573	-0.1741552777139495	0.01920691112240304	0.077793497858021	0.9507980848579993	0.4333216271429778	0.2711820815411858	-2.259545993639319	0.01794773436529869	-0.406410730535169	0.6845170438468077	-1.108199917854804	-1.10819991785479	-0.1845715841962651	0.006952360447231359	0.1168943670976485	0.05772051010637334	-0.1476358019893961	0.02783149278701395	0.01350405019365575	-0.03517553566246623	0.0001497259988391918	-0.02525315971981404	0.1269207097618792	-25.49487786180798	9.779513044972491	4.615700080774229	-2.114448677244896	-425.588236998742	-44.47099111453233	-25.25716514512107	-0.1488997349941429	0.3739302988859171	-0.5540341620108317	-0.201383164333876	0.1363865161470399	-0.04641193884024167	1.07285374716685	-0.07427239146558701	-0.07427239146558758	-0.1985238833619306	0.2124020563720052	0.2695090364365656	0.227842275712666	2.807531232880609e-08	1.030862189151784e-06	-3.243683934125657e-07	1.352776202533839e-07	4.144112384958454e-07	1.35638335696541e-07	1.889271261164012e-07
1.57	-0.4353349029423151	0.0346989016297592	0.8457760763806719	0.8305794251587862	-0.3506340976775891	-0.1935752568703212	-0.2833800187393484	0.3393352516418693	0.3393352516418738	-0.1044320566228389	-0.1740794430475183	0.02038857417691674	0.07838076031887381	0.9491276427899089	0.4368504277847813	0.2655039417813779	-2.260947661051626	0.0190643993181233	-0.4077342845203102	0.6946013342058773	-1.10851998534257	-1.108519985342628	-0.1867657305215769	0.00800806539635331	0.1194222178608034	0.05970896670009987	-0.1417266566003638	0.02624417719294098	0.013451837429424	-0.03512288133895639	-0.001086361655719605	-0.02650393555456938	0.122458372374572	-25.87309749949132	10.28684887114101	4.651439468870892	-1.572109224870758	-423.5800538295222	-44.35984511619758	-25.40336007726149	-0.1951138364532071	0.3306772640068381	-0.5827562664833779	-0.05854872689251078	0.09606779844496315	-0.1965242407955389	0.9546157587195334	0.02021914572603063	0.02021914571567443	-0.2244099495152988	0.02107888904763747	0.2420462055983142	0.1807530014178569	2.070899797401387e-08	1.089050964236835e-06	-3.025958388170598e-07	1.430636470131407e-07	4.216077851270635e-07	1.508168817651023e-07	1.905482652674691e-07
